<svg width="66" height="44" viewBox="0 0 66 44" fill="none" xmlns="http://www.w3.org/2000/svg">
<g clip-path="url(#clip0_12_2043)">
<path fill-rule="evenodd" clip-rule="evenodd" d="M65.9805 0.0646546C58.837 7.8262 54.828 10.1015 45.7854 8.69538C38.3623 7.54266 25.4977 4.25292 22.1029 13.5373C21.1032 16.2707 21.3095 19.5767 22.5309 22.2839C11.7331 5.92792 23.8861 -1.69456 39.308 0.314977C48.5243 1.51637 59.0742 4.36418 65.9805 0.0646546Z" fill="#FBD784"/>
<path fill-rule="evenodd" clip-rule="evenodd" d="M57.4236 12.0315C49.3878 18.1991 34.6883 8.71854 26.8851 13.3418C24.3324 14.8538 23.7406 18.0933 24.1331 20.7889C29.4995 7.03891 50.0724 31.8865 57.4236 12.0315Z" fill="#FBD784"/>
<path fill-rule="evenodd" clip-rule="evenodd" d="M-0.000488281 42.9385C7.14298 35.1761 11.1528 32.9016 20.1945 34.307C27.6177 35.4605 40.4815 38.7494 43.877 29.4659C44.8768 26.7324 44.6705 23.4264 43.449 20.7192C54.2469 37.0744 42.0939 44.6977 26.672 42.6874C17.4564 41.486 6.90579 38.6382 -0.000488281 42.9385Z" fill="white"/>
<path fill-rule="evenodd" clip-rule="evenodd" d="M8.55664 30.9716C16.5925 24.8031 31.292 34.2837 39.0952 29.6605C41.6479 28.1477 42.2405 24.909 41.8472 22.2134C36.4815 35.9634 15.9087 11.1157 8.55664 30.9716Z" fill="white"/>
</g>
<defs>
<clipPath id="clip0_12_2043">
<rect width="65.9809" height="43.0037" fill="white"/>
</clipPath>
</defs>
</svg>
